<?xml version="1.0" encoding="utf-8"?>
<!-- Generator: Adobe Illustrator 16.0.0, SVG Export Plug-In . SVG Version: 6.00 Build 0)  -->
<!DOCTYPE svg PUBLIC "-//W3C//DTD SVG 1.1//EN" "http://www.w3.org/Graphics/SVG/1.1/DTD/svg11.dtd">
<svg version="1.1" xmlns="http://www.w3.org/2000/svg" xmlns:xlink="http://www.w3.org/1999/xlink" x="0px" y="0px" width="130px"
	 height="65px" viewBox="0 0 130 65" enable-background="new 0 0 130 65" xml:space="preserve">
<g id="Layer_1">
</g>
<g id="Layer_2">
	<g>
		<path fill="#FFFFFF" d="M55.6,41C55.6,41,55.6,41,55.6,41l0-16.7c0.3-0.2,0.5-0.4,0.6-0.7c0.6-1,0.2-2.2-0.7-2.8
			c-0.6-0.3-1.3-0.4-1.9-0.1l-14.5-8.4c0-0.4-0.2-0.9-0.5-1.2c-0.2-0.2-0.4-0.4-0.6-0.6c-0.6-0.4-1.4-0.4-2,0L21.5,2.2
			c0-0.7-0.4-1.3-1-1.7c-1-0.6-2.2-0.2-2.8,0.7c-0.2,0.3-0.3,0.7-0.3,1.1L3.1,10.6c-1-0.5-2.2-0.2-2.7,0.8c-0.5,0.9-0.2,2.1,0.7,2.7
			v16.6c-0.2,0.1-0.3,0.2-0.4,0.4c-0.1,0.1-0.2,0.3-0.3,0.4c-0.6,1-0.2,2.2,0.7,2.8c0,0,0,0,0,0v16.5c-0.3,0.2-0.6,0.4-0.8,0.8
			c-0.6,1-0.2,2.2,0.7,2.8c0.7,0.4,1.4,0.3,2.1,0l14.5,8.4c0,0.7,0.4,1.4,1,1.8c1,0.6,2.2,0.2,2.8-0.7c0.2-0.3,0.3-0.7,0.3-1
			l14.3-8.2c0,0,0,0,0,0c0.6,0.3,1.2,0.3,1.7,0.1c0.5-0.1,1-0.5,1.3-1c0.2-0.3,0.3-0.7,0.3-1l14.3-8.2c0,0,0,0,0,0
			c1,0.6,2.2,0.2,2.8-0.7C56.9,42.8,56.5,41.5,55.6,41z M52.8,41.7c-0.2,0.3-0.3,0.7-0.3,1L38.2,51c0,0,0,0,0,0c0,0-0.1,0-0.1,0
			V34.4c0.3-0.2,0.6-0.4,0.8-0.8c0.6-1,0.2-2.2-0.7-2.8c0,0-0.1,0-0.1,0V14.3c0,0,0.1,0,0.1-0.1l14.2,8.2c-0.1,0.8,0.3,1.6,1,2
			c0,0,0.1,0,0.1,0.1V41C53.2,41.1,53,41.4,52.8,41.7z M20.6,61C20.6,61,20.6,61,20.6,61c-0.7-0.4-1.5-0.4-2.1,0L4,52.6
			c0-0.7-0.4-1.4-1-1.8l0,0V34.3c0,0,0,0,0,0l14.3,8.3c0,0.7,0.3,1.4,1,1.8c0,0,0.1,0,0.1,0.1v0c0.7,0.4,1.4,0.3,2,0l14.4,8.3
			L20.6,61z M3,14.2c0.4-0.2,0.7-0.4,0.9-0.8c0.2-0.4,0.3-0.8,0.3-1.1L18.5,4C19.1,4.4,20,4.4,20.6,4l14.3,8.3c0,0.1,0,0.2,0,0.2
			l-14.2,8.2c0,0-0.1-0.1-0.1-0.1c-1-0.6-2.2-0.2-2.8,0.7c-0.2,0.3-0.3,0.7-0.3,1.1L3.1,30.6c0,0,0,0,0,0V14.2z M4.2,32.3l14.2-8.2
			c0,0,0.1,0,0.1,0.1v16.6c0,0-0.1,0-0.1,0L4.2,32.6C4.2,32.5,4.2,32.4,4.2,32.3z M35.9,14.2c0,0,0.1,0.1,0.1,0.1c0,0,0.1,0,0.1,0
			v16.4l-14.4-8.3L35.9,14.2z M20.6,40.9C20.6,40.9,20.6,40.9,20.6,40.9C20.5,40.9,20.5,40.9,20.6,40.9l-0.1-16.7
			c0.1,0,0.2-0.1,0.2-0.1L35,32.4c0,0.1,0,0.2,0,0.3L20.6,40.9z M21.6,42.7L36,34.4c0,0,0,0,0.1,0v16.5C36,51,36,51,35.9,51
			L21.6,42.7C21.6,42.7,21.6,42.7,21.6,42.7z"/>
		<path fill="#FFFFFF" d="M116.1,22.9h-0.5h-9.2h-3.5h-0.4v12.3l-7.9-12.3H91v19.9l-7.3-19.9h-1.4l-6.9,18.7H65.3V22.9h-1.5v20.1H75
			h1h0.6l1.7-4.9h9.4l1.7,4.9H91h0.1H95V30.6l7.9,12.3h3.5h9.7v-3.5h-9.3v-4.9h7.9v-3.5h-7.9v-4.7h8.8h0.5h4.8v16.6h3.9V26.3h5.2
			v-3.5H116.1z M78.8,36.7L83,24.9l4.2,11.8H78.8z"/>
	</g>
</g>
</svg>
