<?xml version="1.0" encoding="utf-8"?>
<!-- Generator: Adobe Illustrator 18.0.0, SVG Export Plug-In . SVG Version: 6.00 Build 0)  -->
<svg version="1.1" xmlns="http://www.w3.org/2000/svg" xmlns:xlink="http://www.w3.org/1999/xlink" x="0px" y="0px"
	 viewBox="0 0 32 32" enable-background="new 0 0 32 32" xml:space="preserve">
<g id="grids" display="none">
</g>
<g id="BG" display="none">
	<rect x="-25" y="-497.7" display="inline" width="314" height="680.7"/>
</g>
<g id="ICONS">
	<g>
		<polygon fill="#0C64AE" points="16.7,10 15.3,10 15.3,15.3 10.1,15.3 10.1,16.7 15.3,16.7 15.3,22 16.7,22 16.7,16.7 21.9,16.7 
			21.9,15.3 16.7,15.3 		"/>
		<path fill="#0C64AE" d="M16,1C7.7,1,1,7.7,1,16s6.7,15,15,15s15-6.7,15-15S24.3,1,16,1z M16,30.3C8.1,30.3,1.7,23.9,1.7,16
			S8.1,1.7,16,1.7S30.3,8.1,30.3,16S23.9,30.3,16,30.3z"/>
	</g>
</g>
<g id="txt" display="none">
</g>
</svg>
