<?xml version="1.0" encoding="utf-8"?>
<!-- Generator: Adobe Illustrator 18.0.0, SVG Export Plug-In . SVG Version: 6.00 Build 0)  -->
<svg version="1.1" xmlns="http://www.w3.org/2000/svg" xmlns:xlink="http://www.w3.org/1999/xlink" x="0px" y="0px"
	 viewBox="0 0 32 32" enable-background="new 0 0 32 32" xml:space="preserve">
<g id="grids" display="none">
</g>
<g id="BG" display="none">
	<rect x="-129" y="-497.7" display="inline" width="314" height="680.7"/>
</g>
<g id="ICONS">
	<g>
		<path fill="#0863AD" d="M28.4,7.3l-3.7-3.7C24.4,3.2,23.8,3,23.3,3c-0.5,0-1,0.2-1.4,0.6L3.6,21.9C3.2,22.3,3,22.8,3,23.3V27
			c0,1.1,0.9,2,2,2h3.7c0.5,0,1-0.2,1.4-0.6l18.3-18.3C28.8,9.7,29,9.2,29,8.7C29,8.1,28.8,7.6,28.4,7.3z M8.7,27H5v-3.7L20.3,8
			l3.7,3.7L10.9,24.8l-3.7-3.7l-0.7,0.7l3.7,3.7L8.7,27z M24.7,11L21,7.3L23.3,5L27,8.7L24.7,11z"/>
		<path fill="#0863AD" d="M9.3,21.8c0.1,0,0.3,0,0.4-0.1l11.2-11.3c0.2-0.2,0.2-0.5,0-0.7c-0.2-0.2-0.5-0.2-0.7,0L8.9,20.9
			c-0.2,0.2-0.2,0.5,0,0.7C9,21.7,9.1,21.8,9.3,21.8z"/>
		<path fill="#0863AD" d="M10.4,23.1c0.1,0.1,0.2,0.1,0.4,0.1c0.1,0,0.3,0,0.4-0.1l11.2-11.3c0.2-0.2,0.2-0.5,0-0.7
			c-0.2-0.2-0.5-0.2-0.7,0L10.4,22.4C10.2,22.6,10.2,22.9,10.4,23.1z"/>
	</g>
</g>
<g id="txt" display="none">
</g>
</svg>
