<?xml version="1.0" encoding="UTF-8" standalone="no"?>
<svg width="200px" height="99px" viewBox="0 0 200 99" version="1.1" xmlns="http://www.w3.org/2000/svg" xmlns:xlink="http://www.w3.org/1999/xlink" xmlns:sketch="http://www.bohemiancoding.com/sketch/ns">
    <!-- Generator: Sketch 3.3 (11970) - http://www.bohemiancoding.com/sketch -->
    <title>Imported Layers Copy</title>
    <desc>Created with Sketch.</desc>
    <defs></defs>
    <g id="Page-1" stroke="none" stroke-width="1" fill="none" fill-rule="evenodd" sketch:type="MSPage">
        <g id="1" sketch:type="MSArtboardGroup" transform="translate(-371.000000, -211.000000)" fill="#0163AE">
            <g id="Imported-Layers-Copy" sketch:type="MSLayerGroup" transform="translate(371.000000, 211.000000)">
                <path d="M85.3750344,62.3270648 C85.3641701,62.3205657 85.3533058,62.3183993 85.3424415,62.3119001 L85.3424415,36.8633068 C85.7357294,36.6033399 86.0833873,36.2653829 86.3354392,35.8321047 C87.2002381,34.3394614 86.6917885,32.4243719 85.192514,31.5599819 C84.266875,31.0270498 83.18479,31.0183842 82.2852253,31.4429968 L60.0590244,18.6157966 C60.0090486,17.9290507 59.7222309,17.2791334 59.2528928,16.7570332 C58.998668,16.3974124 58.6727388,16.0832857 58.2685865,15.8493155 C57.3016631,15.292553 56.1630837,15.3120505 55.2439632,15.7929893 L33.1307512,3.03511359 C33.0981583,1.9887468 32.5505972,0.983541447 31.5771552,0.422446216 C30.0778807,-0.444110125 28.1614168,0.0671581164 27.2944451,1.56196781 C26.9924173,2.08190161 26.8663913,2.65382879 26.8837742,3.21492403 L4.85530379,15.8471491 C3.37558507,15.0715812 1.53517134,15.580683 0.689928191,17.0386641 C-0.15096923,18.4858131 0.314023142,20.3229126 1.70900026,21.2197984 L1.70900026,46.6748909 C1.45694832,46.8352039 1.22227927,47.030179 1.02237601,47.2619828 C0.833337054,47.4504589 0.65950813,47.656266 0.518272129,47.8967354 C-0.348699632,49.3915451 0.161922834,51.3066346 1.66119731,52.1688581 C1.67640734,52.1775237 1.69161737,52.1818565 1.70900026,52.190522 L1.70900026,77.4311419 C1.23097072,77.6954416 0.811608438,78.0788927 0.518272129,78.5814954 C-0.348699632,80.0763051 0.161922834,81.9892282 1.66119731,82.8536182 C2.67157793,83.4363773 3.86665178,83.3800512 4.8096737,82.8297879 L26.981553,95.6309914 C26.9728616,96.7185196 27.5204227,97.7800512 28.5308033,98.3606439 C30.0300778,99.2272002 31.9487145,98.7137656 32.8156863,97.2232887 C33.1046769,96.720686 33.22853,96.1769219 33.2263571,95.6374906 L55.1592216,83.0594253 C55.1809503,83.07459 55.1983331,83.0940876 55.2222346,83.1049195 C56.0653049,83.5923575 57.0387469,83.6291861 57.8883358,83.312893 C58.6770845,83.1114187 59.3876102,82.6109824 59.8265283,81.8527456 C60.1090003,81.367474 60.2306805,80.8388747 60.2350262,80.3124417 L82.2070023,67.7170453 C82.2156937,67.7213781 82.2243852,67.7300436 82.2330766,67.7365428 C83.7323511,68.6009328 85.648815,68.0896645 86.5157867,66.5948548 C87.3827585,65.1022115 86.872136,63.1892884 85.3750344,62.3270648 L85.3750344,62.3270648 Z M81.0901514,63.46442 C80.8011608,63.9648563 80.6773077,64.5107868 80.6816535,65.0502181 L58.7487889,77.626117 C58.7248875,77.6131187 58.7075046,77.597954 58.6857759,77.5806228 C58.6466644,77.5611253 58.6053801,77.5502934 58.5662686,77.5286295 L58.5662686,52.3616669 C59.0747182,52.0995336 59.5179819,51.6965849 59.8265283,51.1679856 C60.6935,49.6753423 60.1828776,47.7624191 58.6857759,46.8980292 C58.6466644,46.8763653 58.6053801,46.8655333 58.5662686,46.8438694 L58.5662686,21.4884309 C58.6205901,21.455935 58.6749116,21.4277719 58.7248875,21.3909433 L80.5099974,33.9625094 C80.3948357,35.1453588 80.955434,36.3368738 82.0527291,36.9694599 C82.1222607,37.0106213 82.1939651,37.0344516 82.2634967,37.0669475 L82.2634967,62.3227321 C81.7941586,62.5870317 81.3813149,62.9661501 81.0901514,63.46442 L81.0901514,63.46442 Z M31.6988354,92.9728298 C31.690144,92.9641643 31.6814525,92.9576651 31.6727611,92.9511659 C30.6602076,92.3684068 29.4651338,92.4225666 28.5242847,92.9728298 L6.3524054,80.1781255 C6.36109685,79.0905973 5.81353574,78.0290657 4.80098225,77.4441402 C4.79663653,77.4398074 4.79229081,77.4398074 4.78577222,77.4354747 L4.78577222,52.162359 C4.79446367,52.1580262 4.80098225,52.151527 4.8096737,52.1471942 L26.8012055,64.8400782 C26.7838226,65.936272 27.3313837,67.0086355 28.3504558,67.5957274 C28.409123,67.6303896 28.472136,67.6498872 28.5308033,67.6758839 L28.5308033,67.6780502 C29.5303196,68.2543102 30.7080106,68.2066496 31.6445139,67.6780502 L53.6556014,80.3817662 L31.6988354,92.9728298 L31.6988354,92.9728298 Z M4.78577222,21.4082744 C5.32246903,21.1439747 5.79180712,20.7258613 6.11556349,20.1712652 C6.43497414,19.621002 6.56317297,19.0144125 6.52840719,18.4251542 L28.4656174,5.84275613 C29.508591,6.43201444 30.7427764,6.34969159 31.6923169,5.74526854 L53.5795513,18.3774936 C53.5708598,18.5074771 53.5599955,18.6352941 53.568687,18.7609448 L31.7814042,31.2545208 C31.7118726,31.2046938 31.6510325,31.1505341 31.5771552,31.1050399 C30.0778807,30.2406499 28.1614168,30.7519182 27.2944451,32.2467278 C26.9924173,32.7666617 26.8663913,33.3385888 26.8837742,33.8975177 L4.85313093,46.5297427 C4.83140231,46.5189108 4.80750084,46.5102452 4.78577222,46.4994133 L4.78577222,21.4082744 L4.78577222,21.4082744 Z M6.52840719,49.1077479 L28.3374186,36.6033399 C28.3873944,36.6380021 28.4308517,36.6791635 28.4851732,36.709493 L28.4851732,62.1212577 C28.441716,62.145088 28.4026045,62.1710847 28.3613201,62.194915 L6.51537002,49.5865202 C6.53058005,49.4262073 6.53709863,49.2680608 6.52840719,49.1077479 L6.52840719,49.1077479 Z M55.1505302,21.3909433 C55.2222346,21.4407703 55.2852476,21.4992628 55.3634706,21.5425906 C55.4025821,21.5664209 55.4482122,21.5794193 55.4894966,21.6010832 L55.4894966,46.6207312 L33.3936674,33.8671882 L55.1505302,21.3909433 L55.1505302,21.3909433 Z M31.6988354,62.2880698 C31.690144,62.2794042 31.6814525,62.2729051 31.6727611,62.2664059 C31.6358225,62.2469084 31.5967109,62.2382428 31.5597723,62.2187453 L31.5597723,36.7831503 C31.6857983,36.7159922 31.8074785,36.6466677 31.9226402,36.5621784 L53.8207389,49.2009027 C53.8055289,49.3352189 53.803356,49.4738679 53.8077018,49.6103505 L31.6988354,62.2880698 L31.6988354,62.2880698 Z M33.2263571,64.9505642 L55.3938907,52.2425154 C55.4243107,52.2598465 55.4569037,52.2685121 55.4894966,52.2858432 L55.4894966,77.5632917 C55.3873721,77.6087859 55.2939391,77.6694449 55.1961603,77.725771 L33.2220114,65.043719 C33.2241842,65.0133895 33.2263571,64.98306 33.2263571,64.9505642 L33.2263571,64.9505642 Z" id="Fill-1" sketch:type="MSShapeGroup"></path>
                <path d="M178.227927,34.6405897 L157.309789,34.6405897 L157.309789,53.4253648 L145.124381,34.6405897 L139.763932,34.6405897 L139.763932,65.0805476 L128.530238,34.6405897 L126.455155,34.6405897 L115.897221,63.247781 L100.311285,63.247781 L100.311285,34.6405897 L97.9776314,34.6405897 L97.9776314,65.3166842 L117.639856,65.3166842 L120.318994,57.8621333 L134.666399,57.8621333 L137.345537,65.3166842 L145.771894,65.3166842 L145.771894,46.4885813 L157.957302,65.3166842 L178.227927,65.3166842 L178.227927,59.9743644 L163.965264,59.9743644 L163.965264,52.5219798 L176.107214,52.5219798 L176.107214,47.1774936 L163.965264,47.1774936 L163.965264,39.9829096 L185.528742,39.9829096 L185.528742,65.3166842 L191.534531,65.3166842 L191.534531,39.9829096 L199.574119,39.9829096 L199.574119,34.6405897 L178.227927,34.6405897 L178.227927,34.6405897 Z M121.053421,55.7953964 L127.493783,37.7428614 L133.931972,55.7953964 L121.053421,55.7953964 L121.053421,55.7953964 Z" id="Fill-2" sketch:type="MSShapeGroup"></path>
            </g>
        </g>
    </g>
</svg>